<?xml version="1.0" standalone="no"?><!DOCTYPE svg PUBLIC "-//W3C//DTD SVG 1.1//EN" "http://www.w3.org/Graphics/SVG/1.1/DTD/svg11.dtd"><svg t="1556522456230" class="icon" style="" viewBox="0 0 1024 1024" version="1.1" xmlns="http://www.w3.org/2000/svg" p-id="4000" xmlns:xlink="http://www.w3.org/1999/xlink" width="32" height="32"><defs><style type="text/css"></style></defs><path d="M906.212134 565.732986 565.732986 565.732986 565.732986 906.212134C565.732986 926.013685 541.666486 959.972 511.97312 959.972 482.297674 959.972 458.213254 926.013685 458.213254 906.212134L458.213254 565.732986 117.734106 565.732986C97.950475 565.732986 63.97424 541.666486 63.97424 511.97312 63.97424 482.279754 97.950475 458.213254 117.734106 458.213254L458.213254 458.213254 458.213254 117.734106C458.213254 97.950475 482.297674 63.97424 511.97312 63.97424 541.666486 63.97424 565.732986 97.950475 565.732986 117.734106L565.732986 458.213254 906.212134 458.213254C925.995765 458.213254 959.972 482.279754 959.972 511.97312 959.972 541.666486 925.995765 565.732986 906.212134 565.732986Z" p-id="4001" fill="#707070"></path></svg>