<?xml version="1.0" standalone="no"?><!DOCTYPE svg PUBLIC "-//W3C//DTD SVG 1.1//EN" "http://www.w3.org/Graphics/SVG/1.1/DTD/svg11.dtd"><svg t="1557200281187" class="icon" style="" viewBox="0 0 1024 1024" version="1.1" xmlns="http://www.w3.org/2000/svg" p-id="4174" xmlns:xlink="http://www.w3.org/1999/xlink" width="48" height="48"><defs><style type="text/css"></style></defs><path d="M512 948.907c-240.299 0-436.907-196.608-436.907-436.907s196.608-436.907 436.907-436.907 436.907 196.608 436.907 436.907-196.608 436.907-436.907 436.907zM512 140.629c-203.89 0-371.371 167.481-371.371 371.371s167.481 371.371 371.371 371.371 371.371-167.481 371.371-371.371-167.481-371.371-371.371-371.371z" p-id="4175" fill="#2c2c2c"></path><path d="M380.928 475.591c0 21.845-21.845 36.409-36.409 36.409-21.845 0-36.409-14.563-36.409-36.409v-65.536c0-21.845 14.563-36.409 36.409-36.409s36.409 14.563 36.409 36.409v65.536zM715.89 475.591c0 21.845-14.563 36.409-36.409 36.409s-36.409-14.563-36.409-36.409v-65.536c0-21.845 14.563-36.409 36.409-36.409s36.409 14.563 36.409 36.409v65.536zM657.635 584.818c7.282 0 14.563 0 21.845 7.282 14.563 14.563 14.563 36.409 0 50.973-43.691 50.973-109.227 72.818-174.763 72.818-65.536 0-131.072-29.127-174.763-72.818-14.563-14.563-14.563-36.409 0-50.973 21.845-7.282 43.691-7.282 58.254 7.282 65.536 72.818 182.045 65.536 247.581 0 7.282-7.282 14.563-14.563 21.845-14.563z" p-id="4176" fill="#2c2c2c"></path></svg>